<svg id="Layer_1" data-name="Layer 1" xmlns="http://www.w3.org/2000/svg" xmlns:xlink="http://www.w3.org/1999/xlink" viewBox="0 0 510.44 128.37"><defs><style>.cls-1{isolation:isolate;font-size:84px;fill:#6e11f5;font-family:Helvetica;}.cls-2{fill:url(#linear-gradient);}.cls-3{fill:url(#linear-gradient-2);}.cls-4{fill:url(#linear-gradient-3);}</style><linearGradient id="linear-gradient" x1="687.92" y1="-937.32" x2="699.98" y2="-925.27" gradientTransform="matrix(1, 0, 0, -1, -249.12, -528.89)" gradientUnits="userSpaceOnUse"><stop offset="0" stop-color="#ab05f2"/><stop offset="1" stop-color="#5207f2"/></linearGradient><linearGradient id="linear-gradient-2" x1="656.06" y1="-981" x2="746.15" y2="-890.92" xlink:href="#linear-gradient"/><linearGradient id="linear-gradient-3" x1="772.47" y1="-972.72" x2="778.35" y2="-966.84" xlink:href="#linear-gradient"/></defs><title>rev logo</title><text class="cls-1" transform="translate(0 86.93)">Bootstrap</text><path class="cls-2" d="M451.77,397.29a10.26,10.26,0,0,0-6.93-2.41,9.3,9.3,0,0,0-7,2.55,12.14,12.14,0,0,0-3.11,6.92h20.13A9.78,9.78,0,0,0,451.77,397.29Z" transform="translate(-20.51 -345.93)"/><path class="cls-3" d="M488.06,359.16C462.19,344.86,442.5,346,442.5,346c-55.32,2.64-55.32,56.77-55.32,56.77a65,65,0,0,0,6.25,28.4V386.44h11.18v7.79a24.76,24.76,0,0,1,4.71-6.11,12.92,12.92,0,0,1,8.54-2.75h.55a8.39,8.39,0,0,1,1,.06v12c-.73-.08-1.39-.14-2-.16s-1,0-1.4,0q-7,0-9.47,4.59c-.91,1.72-1.37,4.39-1.36,8v21.37h0v18.66h0c20.6,24.89,47.32,24.4,47.32,24.4,25.19.68,48.34-22.47,48.34-22.47,23-21.62,23.11-48.51,23.11-48.51C524,376.86,488.06,359.16,488.06,359.16Zm-21,52.91H434.5q.27,6.74,4.67,9.44a11.87,11.87,0,0,0,6.45,1.68,9.06,9.06,0,0,0,8.9-5.13h12q-.45,4-4.33,8.08-6,6.54-16.82,6.52a24.36,24.36,0,0,1-15.8-5.5q-6.84-5.49-6.82-17.9,0-11.61,6.16-17.81t16-6.2a25.87,25.87,0,0,1,10.52,2.09,18.23,18.23,0,0,1,7.73,6.61,21.8,21.8,0,0,1,3.56,9.24A57.32,57.32,0,0,1,467.06,412.07Zm29.86,19.08H484.55l-16-44.71h13.13l9.31,33,9.51-33h12.56Z" transform="translate(-20.51 -345.93)"/><path class="cls-4" d="M522.5,442.6a4,4,0,0,1-.5-2,3.7,3.7,0,0,1,3.61-3.71,6.24,6.24,0,0,1,3,.86s2.34,1.16,2.34,2.88a4.72,4.72,0,0,1-1.45,3.17,5,5,0,0,1-3.15,1.47A4.38,4.38,0,0,1,522.5,442.6Z" transform="translate(-20.51 -345.93)"/></svg>